#!OML:ASF F:\VICON\USERDATA\INSTALL\rory3\rory3.ASF
:FULLY-SPECIFIED
:DEGREES
801
root -0.0560105 16.3025 -0.956758 -160.038 -4.23429 177.278
lowerback -12.4893 -0.128597 -2.50343
upperback -7.58687 -0.918252 -0.525148
thorax -0.936756 -0.823251 0.764819
lowerneck -16.3608 1.54184 -2.2731
upperneck 41.6191 -3.82888 3.48409
head 18.5918 -3.14649 0.717025
rclavicle -1.97201e-014 -2.18663e-015
rhumerus -80.5647 26.1751 -119.064
rradius 63.4033
rwrist -94.6043
rhand -22.32 -13.9394
rfingers 7.12502
rthumb 4.09977 -43.8797
lclavicle -1.97201e-014 -2.18663e-015
lhumerus -79.4631 -17.7943 111.184
lradius 63.8323
lwrist 65.0074
lhand -5.09122 38.0507
lfingers 7.12502
lthumb 20.7058 66.9661
rfemur -23.4596 -19.9137 25.2952
rtibia 59.4269
rfoot 34.2905 -20.4383
rtoes 10.0475
lfemur -36.2849 0.529704 -34.3673
ltibia 42.2877
lfoot -35.2345 19.3921
ltoes 6.95701
802
root -0.047151 16.3036 -0.950308 -160.064 -4.10403 177.14
lowerback -12.3306 -0.117645 -2.79422
upperback -7.58865 -0.875625 -0.554598
thorax -1.02506 -0.790151 0.904967
lowerneck -16.1741 1.56028 -2.0843
upperneck 41.4961 -3.76117 3.31169
head 18.4525 -3.1082 0.619863
rclavicle 1.28247e-014 -9.39258e-015
rhumerus -80.7078 26.0479 -119.253
rradius 64.033
rwrist -96.0498
rhand -23.3044 -13.0578
rfingers 7.12502
rthumb 3.1491 -43.0143
lclavicle 1.28247e-014 -9.39258e-015
lhumerus -79.7187 -17.7636 111.383
lradius 64.7123
lwrist 65.4726
lhand -4.79099 45.3064
lfingers 7.12502
lthumb 20.9942 74.1901
rfemur -23.5332 -19.6636 25.2002
rtibia 59.5138
rfoot 34.2557 -20.7627
rtoes 10.5739
lfemur -36.229 0.484304 -34.4692
ltibia 42.1944
lfoot -35.4195 19.1955
ltoes 7.66929
803
root -0.042576 16.3052 -0.939292 -160.029 -4.09512 177.08
lowerback -12.1592 -0.132729 -2.91065
upperback -7.61646 -0.889483 -0.555824
thorax -1.14581 -0.790862 0.97064
lowerneck -16.1208 1.56594 -1.99197
upperneck 41.482 -3.72918 3.18384
head 18.4217 -3.09841 0.550055
rclavicle -5.83153e-015 2.43511e-015
rhumerus -80.7605 25.9974 -119.323
rradius 64.6429
rwrist -97.2476
rhand -24.1847 -12.9196
rfingers 7.12502
rthumb 2.29894 -42.887
lclavicle -5.83153e-015 2.43511e-015
lhumerus -79.9121 -17.8504 111.752
lradius 65.2823
lwrist 66.0393
lhand -4.68298 45.908
lfingers 7.12502
lthumb 21.098 74.7801
rfemur -23.6305 -19.5785 25.2242
rtibia 59.5565
rfoot 34.2187 -21.1182
rtoes 11.2854
lfemur -36.3054 0.515813 -34.541
ltibia 42.1367
lfoot -35.1818 19.4875
ltoes 6.83566
804
root -0.0455965 16.3078 -0.934214 -160.091 -4.17968 177.149
lowerback -12.0708 -0.123008 -2.77541
upperback -7.52399 -0.868091 -0.564574
thorax -1.09638 -0.776439 0.887891
lowerneck -16.1476 1.51962 -1.95349
upperneck 41.4408 -3.81053 3.20796
head 18.4087 -3.11386 0.540262
rclavicle 3.15726e-015 6.55989e-015
rhumerus -80.6038 25.9384 -119.232
rradius 65.3
rwrist -98.2718
rhand -25.3393 -13.4837
rfingers 7.12502
rthumb 1.1839 -43.4602
lclavicle 3.15726e-015 6.55989e-015
lhumerus -79.9494 -18.0626 112.073
lradius 65.8396
lwrist 66.4889
lhand -4.85943 44.6882
lfingers 7.12502
lthumb 20.9285 73.5792
rfemur -23.5608 -19.6269 25.3053
rtibia 59.5369
rfoot 34.5348 -20.8495
rtoes 10.617
lfemur -36.2927 0.581483 -34.4647
ltibia 42.1451
lfoot -35.0586 19.7165
ltoes 6.2809
805
root -0.0489632 16.3072 -0.933282 -160.144 -4.25089 177.276
lowerback -12.0465 -0.127573 -2.62123
upperback -7.48099 -0.877635 -0.503642
thorax -1.06283 -0.780721 0.863206
lowerneck -15.9637 1.5163 -1.96165
upperneck 41.3678 -3.81981 3.21397
head 18.3149 -3.12234 0.545277
rclavicle 5.56286e-015 5.06901e-015
rhumerus -80.6693 25.9873 -119.353
rradius 65.7313
rwrist -99.3687
rhand -26.29 -12.9639
rfingers 7.12502
rthumb 0.265695 -42.9435
lclavicle 5.56286e-015 5.06901e-015
lhumerus -80.1529 -18.1237 112.429
lradius 66.6722
lwrist 66.9475
lhand -5.39853 44.1221
lfingers 7.12502
lthumb 20.4105 73.0694
rfemur -23.4717 -19.6886 25.4117
rtibia 59.5025
rfoot 34.6463 -21.12
rtoes 11.5026
lfemur -36.2799 0.677036 -34.3495
ltibia 42.1761
lfoot -34.9715 19.8195
ltoes 5.88276
